<svg width="42" height="28" viewBox="0 0 42 28" fill="none" xmlns="http://www.w3.org/2000/svg">
<rect x="0.5" y="0.5" width="41" height="27" rx="2.5" fill="white"/>
<rect x="0.5" y="0.5" width="41" height="27" rx="2.5" stroke="#CCCCCC"/>
<path fill-rule="evenodd" clip-rule="evenodd" d="M7.82809 10L4 18.4714H8.58276L9.15089 17.1207H10.4495L11.0176 18.4714H16.062V17.4405L16.5115 18.4714H19.1208L19.5703 17.4188V18.4714H30.0611L31.3367 17.1558L32.5312 18.4714L37.9195 18.4823L34.0793 14.2594L37.9195 10H32.6148L31.373 11.2913L30.2162 10H18.8035L17.8235 12.1866L16.8205 10H12.2473V10.9958L11.7386 10H7.82809ZM23.494 11.203H29.5184L31.3609 13.1933L33.2629 11.203H35.1055L32.3059 14.2582L35.1055 17.2782H33.1793L31.3368 15.2648L29.4251 17.2782H23.494V11.203ZM24.9817 13.5713V12.4605H28.7407L30.3809 14.2352L28.668 16.0195H24.9817V14.8081H28.2683V13.5713H24.9817ZM8.71483 11.203H10.9487L13.4879 16.9475V11.203H15.935L17.8962 15.3218L19.7037 11.203H22.1385V17.2818H20.657L20.6449 12.5185L18.4849 17.2818H17.1596L14.9875 12.5185V17.2818H11.9396L11.3618 15.919H8.23998L7.66334 17.2806H6.03031L8.71483 11.203ZM8.77302 14.6592L9.80153 12.2315L10.8288 14.6592H8.77302Z" fill="#1F72CD"/>
</svg>
