<svg width="41" height="28" viewBox="0 0 41 28" fill="none" xmlns="http://www.w3.org/2000/svg">
<rect x="0.5" y="0.5" width="40" height="27" rx="2.5" fill="white"/>
<rect x="0.5" y="0.5" width="40" height="27" rx="2.5" stroke="#CCCCCC"/>
<path d="M34.1666 13.9024C34.1666 18.6852 30.3893 22.5547 25.7203 22.5547C23.7495 22.5547 21.9429 21.8577 20.5117 20.7041C22.4825 19.1178 23.726 16.6663 23.726 13.9024C23.726 11.1384 22.4591 8.68691 20.5117 7.10065C21.9429 5.947 23.7495 5.25 25.7203 5.25C30.3893 5.25 34.1666 9.14356 34.1666 13.9024Z" fill="#F79E1B"/>
<path d="M20.5117 7.10065C20.5117 7.10065 20.5117 7.10065 20.5117 7.10065C22.4591 8.68691 23.726 11.1384 23.726 13.9024C23.726 16.6663 22.4825 19.1178 20.5117 20.7041L20.4882 20.7041C18.5409 19.1418 17.2739 16.6663 17.2739 13.9024C17.2739 11.1385 18.5409 8.68696 20.4882 7.1007C20.4882 7.10068 20.4883 7.10071 20.4882 7.1007L20.5117 7.10065Z" fill="#FF5F00"/>
<path d="M17.2739 13.9024C17.2739 11.1385 18.5409 8.68696 20.4882 7.1007C19.0571 5.94705 17.2505 5.25004 15.2797 5.25004C10.6107 5.25004 6.83331 9.11957 6.83331 13.9024C6.83331 18.6852 10.6107 22.5548 15.2797 22.5548C17.2505 22.5548 19.057 21.8577 20.4882 20.7041C18.5409 19.1418 17.2739 16.6663 17.2739 13.9024Z" fill="#EB001B"/>
</svg>
