<svg width="41" height="28" viewBox="0 0 41 28" fill="none" xmlns="http://www.w3.org/2000/svg">
<rect x="0.5" y="0.5" width="40" height="27" rx="2.5" fill="white"/>
<rect x="0.5" y="0.5" width="40" height="27" rx="2.5" stroke="#CCCCCC"/>
<path d="M27.7592 9.18182C27.2543 8.97659 26.4533 8.75 25.463 8.75C22.9347 8.75 21.1544 10.1311 21.1435 12.1056C21.1225 13.5624 22.4181 14.3715 23.3872 14.8573C24.3777 15.3536 24.7144 15.6776 24.7144 16.12C24.7043 16.7995 23.914 17.1127 23.1769 17.1127C22.1548 17.1127 21.6071 16.9512 20.7748 16.5732L20.4377 16.4111L20.0795 18.688C20.6799 18.9682 21.7862 19.2169 22.9347 19.2278C25.621 19.2278 27.3699 17.8681 27.3906 15.7639C27.4008 14.6093 26.7167 13.7246 25.2416 13.0016C24.3462 12.5376 23.7978 12.2246 23.7978 11.7498C23.8083 11.3181 24.2617 10.876 25.2724 10.876C26.1047 10.8543 26.7163 11.0592 27.1795 11.2643L27.4111 11.372L27.7592 9.18182Z" fill="#3362AB"/>
<path d="M18.4784 19.0766H15.9183L17.5196 8.93386H20.0796L18.4784 19.0766Z" fill="#3362AB"/>
<path fill-rule="evenodd" clip-rule="evenodd" d="M34.3221 8.93386H32.3418C31.7311 8.93386 31.2672 9.11714 31.0037 9.77541L27.2009 19.0765H29.8872C29.8872 19.0765 30.3295 17.8246 30.4245 17.555H33.7115C33.785 17.9111 34.017 19.0765 34.017 19.0765H36.3875L34.3221 8.93386ZM31.1619 15.4834C31.3727 14.9007 32.184 12.6455 32.184 12.6455C32.1798 12.6542 32.2127 12.5605 32.2619 12.4208L32.2625 12.4191L32.2629 12.418C32.3364 12.2093 32.4455 11.8995 32.5209 11.6745L32.6998 12.5484C32.6998 12.5484 33.1846 14.9763 33.2899 15.4834H31.1619Z" fill="#3362AB"/>
<path d="M13.7799 8.93386L11.2727 15.8503L10.9987 14.4475L10.9985 14.4467L10.1033 9.78645C9.95586 9.13865 9.50283 8.95522 8.94451 8.93386H4.82546L4.78333 9.13879C5.78795 9.40196 6.68648 9.78118 7.47379 10.2527L9.75566 19.0659H12.463L16.4871 8.93386H13.7799Z" fill="#3362AB"/>
</svg>
