<svg width="200" height="145" viewBox="0 0 200 145" fill="none" xmlns="http://www.w3.org/2000/svg">
<path d="M156.272 1.9271C159.487 1.10804 162.748 0.484547 166.037 0.0597267C168.34 -0.294033 170.541 1.14345 171.164 3.40703L171.138 24.7052C171.014 26.7952 171.849 29.0353 170.189 30.8787C169.4 31.7978 168.347 32.4464 167.176 32.7341C163.42 33.4267 159.787 34.6754 156.394 36.44C150.423 39.9178 146.167 45.7546 144.654 52.5381C144.389 53.6403 144.135 54.7495 143.881 55.8566C158.73 55.8858 173.576 55.9107 188.421 55.9307C189.701 55.8889 190.98 56.022 192.225 56.3267C196.063 57.3561 198.78 60.7995 198.911 64.8024C198.94 87.4398 198.928 110.078 198.878 132.716C199.599 136.226 198.456 139.86 195.859 142.308C194.333 143.724 192.342 144.523 190.268 144.552C168.437 144.557 146.606 144.561 124.775 144.565C119.76 144.545 115.711 140.429 115.731 135.373C115.734 134.556 115.846 133.743 116.063 132.957C115.72 131.87 115.597 130.726 115.7 129.591C115.696 104.924 115.558 80.2469 115.745 55.5798C115.71 39.8023 122.382 24.766 134.073 14.2792C134.694 13.6982 135.294 13.0932 135.901 12.5003C141.935 7.65677 148.858 4.06286 156.274 1.92534L156.272 1.9271ZM35.495 3.50031L36.3274 3.26602L36.7993 2.99585C41.0152 1.76539 45.3066 0.814995 49.6461 0.150595C52.165 -0.502365 54.7316 1.0273 55.3792 3.5672C55.492 4.00962 55.5409 4.46633 55.5243 4.92283C55.5575 7.28519 55.574 9.65283 55.593 12.0167L55.4722 24.7173C55.4909 25.6521 55.5243 26.5799 55.5219 27.5098C55.5171 30.7616 54.2769 32.134 50.2674 33.0569C45.1602 33.9391 40.384 36.1958 36.4434 39.5887C31.958 43.9224 29.0556 49.6563 28.2062 55.8614L69.3505 55.9402C70.8418 55.9426 72.3356 55.921 73.8295 55.9474C78.8748 55.7771 83.1018 59.7631 83.2709 64.8504C83.2794 65.108 83.2772 65.3659 83.2644 65.6235C83.2572 87.9808 83.2399 110.338 83.2122 132.696L83.2502 133.341C83.9693 137.265 82.1959 141.226 78.8019 143.278C77.4105 144.147 75.7999 144.592 74.1638 144.559C52.4765 144.571 30.7899 144.578 9.10415 144.579C4.08793 144.555 0.0402285 140.436 0.0633558 135.378C0.0670649 134.563 0.178559 133.753 0.394777 132.968C0.0552858 131.882 -0.0671043 130.739 0.0343502 129.604C0.0343502 104.894 0.0367496 80.1833 0.0415496 55.4716C0.25995 33.1117 13.5924 13.0056 34.0013 4.25822C34.511 4.03822 34.9971 3.75375 35.495 3.50031Z" fill="#F1B3B4" fill-opacity="0.24"/>
</svg>
