<svg width="199" height="145" viewBox="0 0 199 145" fill="none" xmlns="http://www.w3.org/2000/svg">
<path d="M42.7987 143.067C39.5853 143.889 36.3262 144.514 33.0387 144.94C30.7368 145.295 28.5359 143.853 27.9137 141.583L27.9397 120.223C28.0631 118.127 27.2287 115.88 28.8879 114.031C29.6767 113.109 30.7294 112.459 31.9003 112.17C35.6539 111.476 39.2854 110.223 42.6768 108.454C48.6449 104.966 52.8994 99.112 54.4112 92.3087C54.6766 91.2033 54.9302 90.0908 55.1839 88.9806C40.3425 88.9512 25.5026 88.9263 10.6643 88.9062C9.3852 88.9481 8.10636 88.8146 6.86264 88.5091C3.02591 87.4767 0.310577 84.0232 0.179073 80.0087C0.150722 57.3053 0.161837 34.6014 0.212215 11.8968C-0.508766 8.37731 0.634433 4.73187 3.2294 2.27679C4.75554 0.85741 6.7451 0.056257 8.81798 0.0262499C30.6393 0.0213958 52.4607 0.0174288 74.2818 0.0141192C79.294 0.0341975 83.3411 4.16129 83.3213 9.2325C83.318 10.0517 83.2066 10.8668 82.9896 11.6558C83.332 12.7453 83.4552 13.8931 83.3523 15.0316C83.3568 39.7705 83.4945 64.5192 83.3071 89.2581C83.3429 105.082 76.6735 120.162 64.9882 130.679C64.3673 131.262 63.7669 131.869 63.1609 132.463C57.1296 137.321 50.2092 140.925 42.7972 143.069L42.7987 143.067ZM163.521 141.489L162.689 141.724L162.217 141.995C158.003 143.229 153.714 144.183 149.376 144.849C146.859 145.504 144.293 143.97 143.646 141.422C143.533 140.979 143.484 140.521 143.501 140.063C143.468 137.693 143.451 135.319 143.432 132.948L143.553 120.211C143.534 119.273 143.501 118.343 143.503 117.41C143.508 114.149 144.748 112.772 148.755 111.847C153.86 110.962 158.634 108.699 162.573 105.296C167.056 100.949 169.957 95.1989 170.806 88.9757L129.681 88.8967C128.19 88.8943 126.697 88.9159 125.204 88.8895C120.161 89.0602 115.936 85.0627 115.767 79.9605C115.758 79.7022 115.76 79.4436 115.773 79.1852C115.78 56.7628 115.798 34.3401 115.825 11.9175L115.787 11.2701C115.069 7.33499 116.841 3.3619 120.234 1.30442C121.624 0.433332 123.234 -0.0130233 124.87 0.0191903C146.547 0.00727566 168.224 0.000882564 189.9 0C194.914 0.023388 198.96 4.15488 198.936 9.22764C198.933 10.0445 198.821 10.8571 198.605 11.6441C198.945 12.7336 199.067 13.8803 198.965 15.0179C198.965 39.8001 198.963 64.583 198.958 89.3667C198.74 111.792 185.414 131.956 165.014 140.729C164.505 140.95 164.019 141.235 163.521 141.489Z" fill="#F1B3B4" fill-opacity="0.24"/>
</svg>
